HIERARCHY
ROOT Hips
{
	OFFSET 0.000000 0.000000 0.000000
	CHANNELS 6 Xposition Yposition Zposition Xrotation Yrotation Zrotation
	JOINT Thigh.L
	{
		OFFSET 0.053769 0.027560 -0.093450
		CHANNELS 3 Xrotation Yrotation Zrotation
		JOINT Shin.L
		{
			OFFSET 0.060631 0.006040 -0.408224
			CHANNELS 3 Xrotation Yrotation Zrotation
			JOINT Foot.L
			{
				OFFSET -0.041938 0.030821 -0.431843
				CHANNELS 3 Xrotation Yrotation Zrotation
				JOINT Toe.L
				{
					OFFSET 0.047764 -0.125812 -0.063931
					CHANNELS 3 Xrotation Yrotation Zrotation
					End Site
					{
						OFFSET 0.000000 0.050000 0.000000
					}
				}
			}
		}
	}
	JOINT Thigh.R
	{
		OFFSET -0.058895 0.021882 -0.106042
		CHANNELS 3 Xrotation Yrotation Zrotation
		JOINT Shin.R
		{
			OFFSET -0.049571 0.013952 -0.389647
			CHANNELS 3 Xrotation Yrotation Zrotation
			JOINT Foot.R
			{
				OFFSET 0.014201 0.019168 -0.440842
				CHANNELS 3 Xrotation Yrotation Zrotation
				JOINT Toe.R
				{
					OFFSET -0.039324 -0.126670 -0.063842
					CHANNELS 3 Xrotation Yrotation Zrotation
					End Site
					{
						OFFSET 0.000000 0.050000 0.000000
					}
				}
			}
		}
	}
	JOINT Spine
	{
		OFFSET -0.002602 0.026074 0.111913
		CHANNELS 3 Xrotation Yrotation Zrotation
		JOINT Spine.2
		{
			OFFSET 0.008530 0.006298 0.140795
			CHANNELS 3 Xrotation Yrotation Zrotation
			JOINT Chest
			{
				OFFSET -0.010460 -0.021307 0.056314
				CHANNELS 3 Xrotation Yrotation Zrotation
				JOINT Neck
				{
					OFFSET -0.011795 0.022611 0.167793
					CHANNELS 3 Xrotation Yrotation Zrotation
					JOINT Head
					{
						OFFSET 0.025131 -0.023292 0.171803
						CHANNELS 3 Xrotation Yrotation Zrotation
						End Site
						{
							OFFSET 0.000000 0.050000 0.000000
						}
					}
				}
				JOINT Clavicle.L
				{
					OFFSET 0.046992 0.003248 0.086522
					CHANNELS 3 Xrotation Yrotation Zrotation
					JOINT UpperArm.L
					{
						OFFSET 0.126614 0.014090 0.057364
						CHANNELS 3 Xrotation Yrotation Zrotation
						JOINT ForeArm.L
						{
							OFFSET 0.268983 0.042192 -0.075198
							CHANNELS 3 Xrotation Yrotation Zrotation
							JOINT Hand.L
							{
								OFFSET 0.272610 0.001113 0.021612
								CHANNELS 3 Xrotation Yrotation Zrotation
								JOINT Thumb1.L
								{
									OFFSET 0.154624 0.000488 0.009484
									CHANNELS 3 Xrotation Yrotation Zrotation
									JOINT Thumb2.L
									{
										OFFSET 0.029906 0.000122 0.002371
										CHANNELS 3 Xrotation Yrotation Zrotation
										End Site
										{
											OFFSET 0.024922 0.000102 0.001976
										}
									}
								}
								JOINT Index1.L
								{
									OFFSET 0.137624 0.000488 0.009484
									CHANNELS 3 Xrotation Yrotation Zrotation
									JOINT Index2.L
									{
										OFFSET 0.029906 0.000122 0.002371
										CHANNELS 3 Xrotation Yrotation Zrotation
										JOINT Index3.L
										{
											OFFSET 0.021931 0.000090 0.001739
											CHANNELS 3 Xrotation Yrotation Zrotation
											End Site
											{
												OFFSET 0.017944 0.000073 0.001423
											}
										}
									}
								}
								JOINT Middle1.L
								{
									OFFSET 0.119624 0.000488 0.009484
									CHANNELS 3 Xrotation Yrotation Zrotation
									JOINT Middle2.L
									{
										OFFSET 0.030903 0.000126 0.002450
										CHANNELS 3 Xrotation Yrotation Zrotation
										JOINT Middle3.L
										{
											OFFSET 0.021931 0.000090 0.001739
											CHANNELS 3 Xrotation Yrotation Zrotation
											End Site
											{
												OFFSET 0.017944 0.000073 0.001423
											}
										}
									}
								}
								JOINT Ring1.L
								{
									OFFSET 0.101624 0.000488 0.009484
									CHANNELS 3 Xrotation Yrotation Zrotation
									JOINT Ring2.L
									{
										OFFSET 0.028909 0.000118 0.002292
										CHANNELS 3 Xrotation Yrotation Zrotation
										JOINT Ring3.L
										{
											OFFSET 0.019937 0.000081 0.001581
											CHANNELS 3 Xrotation Yrotation Zrotation
											End Site
											{
												OFFSET 0.016947 0.000069 0.001344
											}
										}
									}
								}
								JOINT Pinky1.L
								{
									OFFSET 0.085624 0.000488 0.009484
									CHANNELS 3 Xrotation Yrotation Zrotation
									JOINT Pinky2.L
									{
										OFFSET 0.023925 0.000098 0.001897
										CHANNELS 3 Xrotation Yrotation Zrotation
										JOINT Pinky3.L
										{
											OFFSET 0.016947 0.000069 0.001344
											CHANNELS 3 Xrotation Yrotation Zrotation
											End Site
											{
												OFFSET 0.013956 0.000057 0.001106
											}
										}
									}
								}
							}
						}
					}
				}
				JOINT Clavicle.R
				{
					OFFSET -0.047503 0.009405 0.085567
					CHANNELS 3 Xrotation Yrotation Zrotation
					JOINT UpperArm.R
					{
						OFFSET -0.110030 0.009964 0.053741
						CHANNELS 3 Xrotation Yrotation Zrotation
						JOINT ForeArm.R
						{
							OFFSET -0.287112 0.027657 -0.040158
							CHANNELS 3 Xrotation Yrotation Zrotation
							JOINT Hand.R
							{
								OFFSET -0.268874 0.014518 -0.005612
								CHANNELS 3 Xrotation Yrotation Zrotation
								JOINT Thumb1.R
								{
									OFFSET -0.154799 0.006469 -0.002501
									CHANNELS 3 Xrotation Yrotation Zrotation
									JOINT Thumb2.R
									{
										OFFSET -0.029950 0.001617 -0.000625
										CHANNELS 3 Xrotation Yrotation Zrotation
										End Site
										{
											OFFSET -0.024958 0.001348 -0.000521
										}
									}
								}
								JOINT Index1.R
								{
									OFFSET -0.137799 0.006469 -0.002501
									CHANNELS 3 Xrotation Yrotation Zrotation
									JOINT Index2.R
									{
										OFFSET -0.029950 0.001617 -0.000625
										CHANNELS 3 Xrotation Yrotation Zrotation
										JOINT Index3.R
										{
											OFFSET -0.021963 0.001186 -0.000458
											CHANNELS 3 Xrotation Yrotation Zrotation
											End Site
											{
												OFFSET -0.017970 0.000970 -0.000375
											}
										}
									}
								}
								JOINT Middle1.R
								{
									OFFSET -0.119799 0.006469 -0.002501
									CHANNELS 3 Xrotation Yrotation Zrotation
									JOINT Middle2.R
									{
										OFFSET -0.030948 0.001671 -0.000646
										CHANNELS 3 Xrotation Yrotation Zrotation
										JOINT Middle3.R
										{
											OFFSET -0.021963 0.001186 -0.000458
											CHANNELS 3 Xrotation Yrotation Zrotation
											End Site
											{
												OFFSET -0.017970 0.000970 -0.000375
											}
										}
									}
								}
								JOINT Ring1.R
								{
									OFFSET -0.101799 0.006469 -0.002501
									CHANNELS 3 Xrotation Yrotation Zrotation
									JOINT Ring2.R
									{
										OFFSET -0.028952 0.001563 -0.000604
										CHANNELS 3 Xrotation Yrotation Zrotation
										JOINT Ring3.R
										{
											OFFSET -0.019967 0.001078 -0.000417
											CHANNELS 3 Xrotation Yrotation Zrotation
											End Site
											{
												OFFSET -0.016972 0.000916 -0.000354
											}
										}
									}
								}
								JOINT Pinky1.R
								{
									OFFSET -0.085799 0.006469 -0.002501
									CHANNELS 3 Xrotation Yrotation Zrotation
									JOINT Pinky2.R
									{
										OFFSET -0.023960 0.001294 -0.000500
										CHANNELS 3 Xrotation Yrotation Zrotation
										JOINT Pinky3.R
										{
											OFFSET -0.016972 0.000916 -0.000354
											CHANNELS 3 Xrotation Yrotation Zrotation
											End Site
											{
												OFFSET -0.013977 0.000755 -0.000292
											}
										}
									}
								}
							}
						}
					}
				}
			}
		}
	}
}
MOTION
Frames: 4
Frame Time: 0.04166667
0.094043103 0.023071104 1.031255 7.290324 -6.121766 7.659492 -90.479323 -10.264204 -16.876426 129.246846 14.627146 -22.852283 -36.785694 -11.975965 2.909437 -0.795488 -1.015517 -0.435078 -89.026216 17.223795 17.637926 136.526651 -12.000477 11.185540 -42.457005 13.167820 0.804695 -2.125469 -3.376517 0.128785 78.617270 -2.475138 0.673442 -11.952732 -4.041810 -0.356804 1.283594 1.163906 0.281823 -13.360050 6.553341 6.634585 -24.152285 0.057852 -13.615166 -18.952289 -2.151774 -41.119685 -14.670393 18.883966 -28.271342 -2.039049 -6.813447 -22.160744 -2.238793 -17.927178 -8.473834 0.000000 0.000000 0.000000 0.000000 0.000000 0.000000 0.000000 0.000000 0.000000 0.000000 0.000000 0.000000 0.000000 0.000000 0.000000 0.000000 0.000000 0.000000 0.000000 0.000000 0.000000 0.000000 0.000000 0.000000 0.000000 0.000000 0.000000 0.000000 0.000000 0.000000 0.000000 0.000000 0.000000 0.000000 0.000000 0.000000 0.000000 0.000000 0.000000 0.000000 0.000000 0.000000 -10.049972 0.252474 40.107500 -19.194006 -22.532209 26.788358 -9.630467 5.063229 13.691613 -6.379596 23.108125 7.516418 0.000000 0.000000 0.000000 0.000000 0.000000 0.000000 0.000000 0.000000 0.000000 0.000000 0.000000 0.000000 0.000000 0.000000 0.000000 0.000000 0.000000 0.000000 0.000000 0.000000 0.000000 0.000000 0.000000 0.000000 0.000000 0.000000 0.000000 0.000000 0.000000 0.000000 0.000000 0.000000 0.000000 0.000000 0.000000 0.000000 0.000000 0.000000 0.000000 0.000000 0.000000 0.000000
0.096071831 0.047483636 1.021769 7.236332 -6.032881 7.898831 -89.923976 -10.656817 -17.108230 131.147542 13.751761 -23.439102 -37.197430 -11.755857 2.500498 -0.831666 -1.180180 -0.319463 -87.604620 16.994266 17.476016 138.267233 -11.180693 11.341758 -42.018756 12.458593 1.260947 -2.279836 -3.427341 0.039152 78.355091 -2.272681 0.312115 -11.655233 -4.408544 -0.854678 1.325488 1.172737 -0.008023 -13.357547 5.974322 7.186710 -24.199013 -0.008888 -14.061333 -19.113569 -2.630857 -41.011988 -14.826144 19.014840 -27.700126 -1.150316 -7.234358 -21.628164 -1.221358 -20.429415 -8.528963 0.000000 0.000000 0.000000 0.000000 0.000000 0.000000 0.000000 0.000000 0.000000 0.000000 0.000000 0.000000 0.000000 0.000000 0.000000 0.000000 0.000000 0.000000 0.000000 0.000000 0.000000 0.000000 0.000000 0.000000 0.000000 0.000000 0.000000 0.000000 0.000000 0.000000 0.000000 0.000000 0.000000 0.000000 0.000000 0.000000 0.000000 0.000000 0.000000 0.000000 0.000000 0.000000 -10.550681 -0.196824 39.517212 -17.407646 -24.841227 27.625225 -8.377058 6.074707 14.917482 -5.518898 26.134060 7.417757 0.000000 0.000000 0.000000 0.000000 0.000000 0.000000 0.000000 0.000000 0.000000 0.000000 0.000000 0.000000 0.000000 0.000000 0.000000 0.000000 0.000000 0.000000 0.000000 0.000000 0.000000 0.000000 0.000000 0.000000 0.000000 0.000000 0.000000 0.000000 0.000000 0.000000 0.000000 0.000000 0.000000 0.000000 0.000000 0.000000 0.000000 0.000000 0.000000 0.000000 0.000000 0.000000
0.097013156 0.051594469 1.014135 7.182797 -5.867168 8.167546 -89.282628 -10.930323 -17.203410 132.548390 12.933109 -23.837834 -38.626571 -11.585891 1.146122 -0.885894 -1.352763 -0.173064 -86.455759 16.653437 17.278298 139.503939 -10.265850 11.407875 -42.740648 11.866483 2.782518 -2.422933 -3.485163 -0.079604 78.078376 -2.092481 -0.122216 -11.312573 -4.751193 -1.257368 1.228662 1.155119 -0.330195 -13.486469 5.380669 7.619152 -24.291804 -0.116401 -14.490948 -19.349172 -3.031336 -40.967151 -15.161231 19.182827 -27.338658 -0.494425 -7.535966 -20.854937 -0.476864 -22.337370 -8.602995 0.000000 0.000000 0.000000 0.000000 0.000000 0.000000 0.000000 0.000000 0.000000 0.000000 0.000000 0.000000 0.000000 0.000000 0.000000 0.000000 0.000000 0.000000 0.000000 0.000000 0.000000 0.000000 0.000000 0.000000 0.000000 0.000000 0.000000 0.000000 0.000000 0.000000 0.000000 0.000000 0.000000 0.000000 0.000000 0.000000 0.000000 0.000000 0.000000 0.000000 0.000000 0.000000 -11.258204 -0.606947 39.030363 -15.788696 -26.808181 28.489570 -7.614225 7.236295 16.227755 -4.856181 28.402528 7.305172 0.000000 0.000000 0.000000 0.000000 0.000000 0.000000 0.000000 0.000000 0.000000 0.000000 0.000000 0.000000 0.000000 0.000000 0.000000 0.000000 0.000000 0.000000 0.000000 0.000000 0.000000 0.000000 0.000000 0.000000 0.000000 0.000000 0.000000 0.000000 0.000000 0.000000 0.000000 0.000000 0.000000 0.000000 0.000000 0.000000 0.000000 0.000000 0.000000 0.000000 0.000000 0.000000
0.097927489 0.054806738 1.008517 7.404187 -6.003972 8.377166 -88.088272 -11.327223 -17.176783 133.443934 12.192241 -24.110910 -39.964409 -11.327663 -0.189687 -0.891683 -1.539318 -0.067396 -84.744509 16.333531 16.917298 140.274356 -9.529241 11.407161 -44.140150 11.839493 3.635547 -2.579605 -3.572510 -0.193327 77.479442 -1.872572 -0.583792 -10.976001 -5.087069 -1.719680 1.167340 1.152583 -0.659788 -13.726514 4.876156 8.152706 -24.109351 -0.042873 -14.863733 -19.431957 -3.430569 -40.742518 -15.441124 19.340952 -27.144133 -0.024033 -7.524842 -19.956893 0.510399 -23.747863 -8.676955 0.000000 0.000000 0.000000 0.000000 0.000000 0.000000 0.000000 0.000000 0.000000 0.000000 0.000000 0.000000 0.000000 0.000000 0.000000 0.000000 0.000000 0.000000 0.000000 0.000000 0.000000 0.000000 0.000000 0.000000 0.000000 0.000000 0.000000 0.000000 0.000000 0.000000 0.000000 0.000000 0.000000 0.000000 0.000000 0.000000 0.000000 0.000000 0.000000 0.000000 0.000000 0.000000 -11.822721 -1.184810 38.383982 -14.061828 -28.582569 29.509994 -6.802397 8.123454 17.451910 -4.229467 30.050078 7.197645 0.000000 0.000000 0.000000 0.000000 0.000000 0.000000 0.000000 0.000000 0.000000 0.000000 0.000000 0.000000 0.000000 0.000000 0.000000 0.000000 0.000000 0.000000 0.000000 0.000000 0.000000 0.000000 0.000000 0.000000 0.000000 0.000000 0.000000 0.000000 0.000000 0.000000 0.000000 0.000000 0.000000 0.000000 0.000000 0.000000 0.000000 0.000000 0.000000 0.000000 0.000000 0.000000
